<svg version="1.1" id="Layer_1" xmlns="http://www.w3.org/2000/svg" x="0" y="0" viewBox="0 0 240.9 71" style="enable-background:new 0 0 240.9 71" xml:space="preserve"><style>.st0{fill:#2c29c4}</style><path class="st0" d="M0 71V.1L46.3 0c2.8 0 5 .6 6.7 1.9 1.7 1.3 2.8 3.4 3.4 6.4-.1 9-.1 18-.1 27.1 0 9.1 0 18.6.1 28.5-1.1 4.8-4.5 7.1-10.1 7.1H0zm36.1-15.5V15.3H19.2l-.1 40.1h17zM70.5 71c-5.6 0-9-2.4-10.1-7.1.1-9.9.1-19.4.1-28.5 0-9.1 0-18.1-.1-27.1.6-2.9 1.7-5.1 3.4-6.4C65.5.6 67.7 0 70.5 0h36.3c2.8 0 5 .6 6.7 1.9 1.7 1.3 2.8 3.4 3.4 6.4-.1 9-.1 18-.1 27.1 0 9.1 0 18.6.1 28.5-1.1 4.8-4.5 7.1-10.1 7.1H70.5zm10.3-15.5h15.9V15.3H80.8v40.2zM177.3.1l-5.6 15.2h-31.3v40.3l36.9-.1-5.4 15.4h-45.3c-1.1-1.1-2.1-2-3.1-2.8-1-.8-1.8-2.1-2.4-3.7V5.7c.6-1.7 1.4-2.9 2.4-3.6 1-.7 2-1.4 3.1-2h50.7zM211.6 36.4l29.3 34.5h-22.6l-17.7-19.2V70.9h-19.1V48.3l-.1-.1.1-.1V.1h19.2l-.1 20.2 14-20.3h22.9l-.6.7h.3l-25.6 35.7z"/></svg>