<svg version="1.1" id="Layer_1" xmlns="http://www.w3.org/2000/svg" xmlns:xlink="http://www.w3.org/1999/xlink" x="0" y="0" viewBox="0 0 626.6 831" style="enable-background:new 0 0 626.6 831" xml:space="preserve"><style>.st0{fill:#ffa982}.st1{fill:#774237}.st2{fill:#eae6e4}.st4{fill:#2e2e47}.st7{fill:#7a38f5}.st8{fill:#fff}.st9{fill:#11bc72}.st10{fill:#f2836d}.st11{clip-path:url(#SVGID_4_)}</style><path class="st0" d="M388.7 686.8c13 38.7 23.5 68.7 23.5 68.7l27.6-1.2s-4.6-28.5-11.4-70.3c-11.3 2.6-25.8 1.5-39.7 2.8z"/><path class="st1" d="M219.9 248.2S203.3 317 203.5 321h-15.4s8.4-53.2 20.7-69.8 11.1-3 11.1-3z"/><path class="st1" d="M159.8 317.8s-11.6-.4-15.9 13.1c-4.4 13.5-21.5 94.6-15.1 97 6.5 2.5 15.9-4.4 20.1-2.5 4.2 1.9 8.8 5.6 14.2 5.4 5.4-.2 109.1 4.7 112.5-4 3.3-8.8-11.9-89.5-17.9-101.4-5.9-11.8-97.9-7.6-97.9-7.6z"/><path class="st2" d="M361.2 78.9s6.2 19.8 11.8 25.4c5.6 5.6 18.7 5.6 23.3 17 4.6 11.4-3.5 20.7 2.5 27 6 6.3 26.3 3.3 37.5 15.4 11.2 12.1-5.8 28.7 1.6 38.6 7.4 9.9 14.2 17.4 13.1 33.9-1.1 16.5-37 47.1-58.7 47.8-21.7.7-72.5-19.4-83.7-31.4s-27.9-91.8-20.8-113.7c7-21.9-1.9-21.2.2-32s10.8-10.7 15.3-21.1c4.5-10.4 20.9-36.8 34.2-31.7 13.3 5.3 23.7 24.8 23.7 24.8z"/><path d="M290.2 130.5s-11.9 4.6-27.9 35.1c-12.3 23.6-30.6 59.3-30.6 59.3s-46-52.1-59.9-50.5c-13.9 1.6-31.5 37.1-31.5 45.8 0 4 62.5 79.9 104.8 76.6 23.3-1.8 59.8-95.1 67.3-126.1 7.4-31.1-12.6-47.5-22.2-40.2z" style="fill:#2c29c4"/><path class="st4" d="M245 296.7c3.5-.3 7.3-2.6 11.2-6.4 3.7-33.5 5.8-98.9 5.8-98.9s-40.6 69.1-46.4 97.8c10.2 5.2 20.3 8.2 29.4 7.5z"/><ellipse cx="332.1" cy="799.8" rx="208.9" ry="16.6" style="opacity:.1;fill:#15192b"/><path class="st1" d="M231.7 224.9s1.7 75-7.9 96.1h14s12.8-80.6-6.1-96.1z"/><path class="st0" d="M231.9 783.3s-1.7-2.5-3-6.5c-.9-2.9-5.6-7-8.1-9.1.6-.2 2.5-1 7.3-3.6 6-3.3 7.5-24.3 7.5-24.3 1.6-3 30.2-8.3 29.3-3.7-2.1 10.2-5.8 26.1-5.3 28.6-.9 1.3-2.5 3.3-4.6 5.6-3.6 3.9-23.1 13-23.1 13z"/><path class="st4" d="M260.6 768.4c-.4-1.1-.8-2.4-1.1-3.8-.9 1.3-2.5 3.3-4.6 5.6-3.6 3.9-23 13-23 13s-1.7-2.5-3-6.5c-.9-2.9-5.6-7-8.1-9.1-.1 0-.2.1-.2.1s-19.3 9.9-22.1 12.1c-1.7 1.3-14.3 7.7-15 11.8-.6 4.1-.2 9.7.4 10.9.6 1.2 25.5 5 69-3 5.8-1.1 9.1-3.3 9.7-5.8.7-2.3-.7-22.2-2-25.3z"/><path class="st0" d="M441.1 783.3s1.7-2.5 3-6.5c.9-2.9 5.6-7 8.1-9.1-.6-.2-2.5-1-7.3-3.6-6-3.3-7.5-24.3-7.5-24.3-1.6-3-30.8-10.1-29.9-5.5 2.1 10.2 6.4 27.9 6 30.4.9 1.3 2.5 3.3 4.6 5.6 3.5 3.9 23 13 23 13z"/><path class="st4" d="M412.4 768.4c.4-1.1.8-2.4 1.1-3.8.9 1.3 2.5 3.3 4.6 5.6 3.6 3.9 23 13 23 13s1.7-2.5 3-6.5c.9-2.9 5.6-7 8.1-9.1.1 0 .2.1.2.1s19.3 9.9 22.1 12.1c1.7 1.3 14.3 7.7 15 11.8.6 4.1.2 9.7-.4 10.9-.6 1.2-25.5 5-69-3-5.8-1.1-9.1-3.3-9.7-5.8-.7-2.3.7-22.2 2-25.3z"/><path class="st0" d="M230.5 761.6h29.3s7.9-32.5 15.5-69.6c-20.5-.7-37.5-1.7-47.5-2.4 1.5 42.7 2.7 72 2.7 72z"/><defs><path id="SVGID_1_" d="M381.8 356.1c-2.8-17.5-9.4-52.1-9.9-90.7-.6-47.9-.3-95.7 0-98.8 2.3-29.7-20.9-50.8-46.5-48.9-16.8 1.2-41.9 13.8-50 26.1-7.3 11.1-18.3 76-27 105.6-10.6 35.8-23.4 66.4-27.5 117-3.2 40.2 3.4 221.6 7 323.2 10 .7 27 1.7 47.5 2.4 34 1.2 77.7 1.5 114.8-2.1 14-1.4 48.7-3.3 59.9-5.9-31.6-192.6-65-307.6-68.3-327.9z"/></defs><use xlink:href="#SVGID_1_" style="overflow:visible;fill:#2c29c4"/><clipPath id="SVGID_2_"><use xlink:href="#SVGID_1_" style="overflow:visible"/></clipPath><g style="clip-path:url(#SVGID_2_)"><path class="st7" d="M421.1 430.9c-1.9-13.2-20.6-10.4-20.3-11.1.2-.7.7-14.4-18-18.8s-21.5 15.3-21.5 15.3-14.7-2.4-19.6 7.3c-5 9.7 9 20.6 9 20.6s-9.7 7.6-3.8 18.4c5.9 10.9 21.5 6.9 21.5 6.9s5.2 12.5 27.2 9.9c22-2.6 15.6-26 15.6-26s11.8-9.2 9.9-22.5zm-40.1 28c-13.9 1.6-22-25.4-8.6-31.1 7.4-3.1 13 .5 16.6 4.4 3.6 3.9 5.5 9.2 5.1 14.5-.4 6.1-3.4 11.1-13.1 12.2z"/><path class="st8" d="M377.6 400.3c1.6 0 3.3.2 5.2.6 18.7 4.4 18.2 18.1 18 18.8-.2.7 18.4-2.1 20.3 11.1 1.9 13.2-9.9 22.5-9.9 22.5s6.4 23.4-15.6 26c-2.1.2-4 .4-5.8.4-17.2 0-21.4-10.3-21.4-10.3s-2.8.7-6.5.7c-5 0-11.6-1.3-15-7.6-5.9-10.9 3.8-18.4 3.8-18.4s-14-10.9-9-20.6c3.3-6.5 11.1-7.6 15.8-7.6 2.3 0 3.9.3 3.9.3s2.2-15.9 16.2-15.9zm2.2 58.7c.4 0 .8 0 1.2-.1 9.7-1.1 12.7-6.1 13.1-12.1.3-5.3-1.5-10.6-5.1-14.5-2.6-2.9-6.4-5.6-11.1-5.6-1.7 0-3.5.4-5.5 1.2-13.1 5.5-5.8 31.1 7.4 31.1zm-2.2-64.5c-7.8 0-14.3 3.8-18.4 10.8-1 1.7-1.7 3.4-2.3 4.9-9.7.1-16.9 3.9-20.4 10.7-2.2 4.2-3.4 11.1 3.1 20 1 1.4 2 2.6 3 3.6-3.3 5-5.4 12.4-.8 20.8 3.7 6.8 10.8 10.6 20.1 10.6 1.4 0 2.7-.1 3.8-.2.9 1.1 2 2.2 3.4 3.4 3.7 2.9 10.2 6.4 20.8 6.4 2.1 0 4.2-.1 6.4-.4 9.8-1.2 14.9-5.9 17.5-9.7 4.7-6.9 4.4-15.3 3.7-20 4.1-4.2 11.1-13.3 9.4-25.3-1-6.7-5.2-11.7-12-14.1-3.1-1.1-6.3-1.5-8.8-1.7-.4-1.8-1.1-3.7-2.2-5.6-2.6-4.6-8.1-10.6-19.7-13.4-2.3-.5-4.5-.8-6.6-.8zm2.2 58.7c-3.4 0-7.1-4.5-8.2-10.1-.7-3.7-.4-8.5 3-9.9 1.1-.5 2.2-.7 3.2-.7 2.3 0 4.6 1.3 6.9 3.8 2.5 2.8 3.9 6.5 3.6 10.2-.2 3.1-1 5.9-8 6.7h-.5z"/><path class="st7" d="M277.7 327c-1.9-13.2-20.6-10.4-20.3-11.1.2-.7.7-14.4-18-18.8s-21.5 15.3-21.5 15.3-14.7-2.4-19.6 7.3c-5 9.7 9 20.6 9 20.6s-9.7 7.6-3.8 18.4c5.9 10.9 21.5 6.9 21.5 6.9s5.2 12.5 27.2 9.9c22-2.6 15.6-26 15.6-26s11.8-9.3 9.9-22.5zm-40.1 27.9c-13.9 1.6-22-25.4-8.6-31.1 7.4-3.1 13 .5 16.6 4.4 3.6 3.9 5.5 9.2 5.1 14.5-.4 6.1-3.4 11.1-13.1 12.2z"/><path class="st8" d="M234.3 296.4c1.6 0 3.3.2 5.2.6 18.7 4.4 18.2 18.1 18 18.8-.2.7 18.4-2.1 20.3 11.1 1.9 13.2-9.9 22.5-9.9 22.5s6.4 23.4-15.6 26c-2.1.2-4 .4-5.8.4-17.2 0-21.4-10.3-21.4-10.3s-2.8.7-6.5.7c-5 0-11.6-1.3-15-7.6-5.9-10.9 3.8-18.4 3.8-18.4s-14-10.9-9-20.6c3.3-6.5 11.1-7.6 15.8-7.6 2.3 0 3.9.3 3.9.3s2.1-15.9 16.2-15.9zm2.1 58.6c.4 0 .8 0 1.2-.1 9.7-1.1 12.7-6.1 13.1-12.1.3-5.3-1.5-10.6-5.1-14.5-2.6-2.9-6.4-5.6-11.1-5.6-1.7 0-3.5.4-5.5 1.2-13.1 5.5-5.8 31.1 7.4 31.1zm-2.1-64.4c-7.8 0-14.3 3.8-18.4 10.8-1 1.7-1.7 3.4-2.3 4.9-9.7.1-16.9 3.9-20.4 10.7-2.2 4.2-3.4 11.1 3.1 20 1 1.4 2 2.6 3 3.6-3.3 5-5.4 12.4-.8 20.8 3.7 6.8 10.8 10.6 20.1 10.6 1.4 0 2.7-.1 3.8-.2.9 1.1 2 2.2 3.4 3.4 3.7 2.9 10.2 6.4 20.8 6.4 2.1 0 4.2-.1 6.4-.4 9.8-1.2 14.9-5.9 17.5-9.7 4.7-6.9 4.4-15.3 3.7-20 4.1-4.2 11.1-13.3 9.4-25.3-1-6.7-5.2-11.7-12-14.1-3.1-1.1-6.3-1.5-8.8-1.7-.4-1.8-1.1-3.7-2.2-5.6-2.6-4.6-8.1-10.6-19.7-13.4-2.4-.5-4.6-.8-6.6-.8zm2.1 58.6c-3.4 0-7.1-4.5-8.2-10.1-.7-3.7-.4-8.5 3-9.9 1.1-.5 2.2-.7 3.2-.7 2.3 0 4.6 1.3 6.9 3.8 2.5 2.8 3.9 6.5 3.6 10.2-.2 3.1-1 5.9-8 6.7h-.5z"/><path class="st9" d="M447.2 576s-12.1-36.1-38.7-42.1c-26.7-6.1-38.1-2-38.1-2s8.4 29.9 28.9 41.8c20.5 11.8 47.9 2.3 47.9 2.3z"/><path class="st8" d="M447.2 576s-27.4 9.4-47.9-2.4-28.9-41.8-28.9-41.8 11.4-4.1 38.1 2 38.7 42.2 38.7 42.2zm7.3 3.6-1.8-5.4c-.5-1.6-13.4-39.2-42.9-45.9-27.5-6.3-40-2.3-41.3-1.8l-5.1 1.8 1.5 5.2c.4 1.3 9.3 32.4 31.6 45.2 22.5 13 51.5 3.3 52.7 2.8l5.3-1.9z"/><path class="st9" d="M280.9 414.7s-37.1-8.5-56.2 11.1-21.6 31.5-21.6 31.5 29.9 8.4 50.7-2.9c20.8-11.3 27.1-39.7 27.1-39.7z"/><path class="st8" d="M280.9 414.7s-6.3 28.3-27 39.7c-20.8 11.3-50.7 2.9-50.7 2.9s2.5-11.9 21.6-31.5c19-19.6 56.1-11.1 56.1-11.1zm6.8-4.3-5.6-1.3c-1.6-.4-40.5-9-61.6 12.7-19.7 20.2-22.8 32.9-23.1 34.3l-1.1 5.3 5.2 1.5c1.3.4 32.5 8.9 55-3.4 22.8-12.4 29.6-42.2 29.9-43.5l1.3-5.6zM280 489.2l-1.7-1.6c-1.1-1-10.7-10.1-22.2-10.1-1.7 0-3.5.2-5.1.6-11.8 3-16.2 7.2-16.9 8l-1.5 1.6-2 2.2 2 2.2 1.5 1.6c1 1.1 10.6 11 22.2 11.5h1c11.4 0 20.2-8.9 21.2-9.9l1.6-1.7 2.2-2.3-2.3-2.1z"/><path class="st9" d="M274.5 491.6s-11.2-10.9-22-8.1c-10.8 2.8-14.2 6.4-14.2 6.4s8.7 9.3 18.4 9.8c9.5.5 17.8-8.1 17.8-8.1zM198.4 654.7s38-.5 51.9-24.1c13.9-23.6 13.5-35.7 13.5-35.7s-31.1-1.1-48.6 14.9c-17.5 15.9-16.8 44.9-16.8 44.9z"/><path class="st8" d="M198.4 654.7s-.7-29 16.8-45c17.5-15.9 48.6-14.9 48.6-14.9s.4 12.1-13.5 35.7-51.9 24.2-51.9 24.2zm-5.7 5.8 5.7-.1c1.7 0 41.4-.9 56.8-27 14.3-24.3 14.3-37.4 14.3-38.8l-.2-5.4-5.4-.2c-1.4 0-33.7-1-52.6 16.4-19.2 17.5-18.7 48.1-18.7 49.4l.1 5.7z"/></g><path class="st0" d="M319.4 105.3c5.3-25.8 17-18.3 17-18.3s.1 24.3 1.8 30.6c1.5 5.8-6.2 10.8-19.4 10.6-6.7-.1-1.3-14.1.6-22.9z"/><path class="st4" d="M321.8 96.7c-.9 2.3-1.7 5.2-2.4 8.5v.2c1.3-.1 3.1-.4 5.6-1.1 5.7-1.6 9.9-10.8 9.9-10.8l-13.1 3.2z"/><path class="st0" d="M342.9 82.8s2.9.7 5.8-1.4c2.3-1.7 3.1-7.9 1.3-10-1.8-2.2-4.4-2.4-4.9-2.6-.6-.2 1.5-13.3-1.2-20.2-2.6-6.9-4-10.2-14.6-10.7s-16.6 4.6-20.5 8.7c-4 4.1-5.4 13.2-6.2 17.5-.9 4.3-2.1 5.5-3.1 7.8-2.5 5.2-3.7 9-2.8 15.3.9 6.4 6.7 13.2 16.9 14.3 10.2 1.1 23.8-2.9 29.3-18.7z"/><path class="st4" d="M333.5 64.6c-.2 0-.3-.1-.4-.2 0-.1-4.3-5.5-9.3-4-.3.1-.6-.1-.7-.3-.1-.3.1-.6.3-.7 5.6-1.8 10.2 4.1 10.4 4.3.2.2.1.6-.1.7.1.2-.1.2-.2.2z"/><path class="st8" d="M303.9 78.9s-.9 5.3 4.4 8.2c5.3 2.9 12.3-3.2 12.3-3.2l-16.7-5z"/><path class="st4" d="M330.2 70c-.2 0-.3-.1-.4-.2 0 0-1.2-1.7-3.1-2-1.7-.3-2.5 0-2.6.1-.1.2-.4.4-.6.3-.3-.1-.4-.4-.3-.7.2-.6 1.3-1.2 3.7-.8 2.4.4 3.8 2.4 3.8 2.5.2.2.1.6-.1.7-.2.1-.3.1-.4.1zm-6.2-2.1zm0 0zM369.9 264c-.7 0-17.4-.9-21.4-2.1-1.8-.6-6.4-.7-12.2-.8-6.4-.2-14.3-.3-21.7-1.2-14.5-1.7-20.8-2.8-27.9-4.8-5.2-1.5-8.1-1.8-10.8-2.1-1.2-.1-2.3-.3-3.5-.5-4.2-.7-22.3-6.6-23.1-6.8-.3-.1-.4-.4-.3-.7.1-.3.4-.4.7-.3.2.1 18.8 6.1 22.9 6.8 1.2.2 2.3.3 3.4.5 2.8.3 5.8.7 11 2.2 7.1 2 13.3 3.1 27.7 4.8 7.4.9 15.3 1.1 21.6 1.2 5.9.1 10.5.3 12.5.9 3.8 1.2 20.9 2 21.1 2.1.3 0 .5.3.5.6 0-.1-.2.2-.5.2zM312 65.8c-.1 0-.3-.1-.4-.2 0 0-.9-.9-2.5-1.2-1.6-.3-2.6.2-2.6.2-.3.1-.6 0-.7-.2-.1-.3 0-.6.2-.7.1 0 1.4-.7 3.3-.3 1.9.3 3 1.4 3 1.5.2.2.2.5 0 .7-.1.2-.2.2-.3.2z"/><path class="st4" d="M312.4 78.5c-.1 0-.2 0-.3-.1-1.8-1.1-2.7-2.3-2.7-3.6 0-1.3.9-2.5 2.6-3.6 3.3-2.1 4.2-9.3 3.9-10.7-.3-1.2-.9-2-1.9-2.5-2.8-1.2-7.7.6-8.5 1.1-.2.1-.6.1-.7-.2-.1-.2-.1-.6.2-.7.6-.4 6-2.6 9.4-1.1 1.4.6 2.2 1.7 2.6 3.2.3 1.6-.6 9.4-4.3 11.8-1.4.9-2.2 1.8-2.1 2.7 0 .9.8 1.8 2.2 2.7.2.1.3.5.2.7-.2.2-.4.3-.6.3zM348.4 307.6c8.6 5.4 18.5 8.8 27.6 11-1.2-9.2-2.3-19.2-3.1-29.8l-65.5-28.3c0 .1 16 31.6 41 47.1z"/><path class="st10" d="M325.1 75.1s7.1 1.6 7.9 4.5c.7 2.9-7.2 1.2-10.4-1.1-3.3-2.3.8-3.9 2.5-3.4zM300.9 71.7s6.4-.4 7.6 2.2c1.2 2.6-6 3.1-9.2 1.8-3.2-1.4 0-3.9 1.6-4z"/><path class="st4" d="M325.7 67.4s-2.1 3.3-.1 4.1c1.9.7 4.2-2.3 3.3-3.4-.7-1.1-2.9-1.1-3.2-.7zM308.3 64.2s-2.1 3.3-.1 4.1c1.9.7 4.2-2.3 3.3-3.4-.7-1.1-2.9-1.1-3.2-.7z"/><path class="st2" d="M321.6 44.2s15.2 19.3 16.2 31c2 25.5 11.7 30.7 28.7 35.1 0 0-5.9-32.7-7-44.8-1.2-12.1-3.3-24.6-12.1-31.2-3.7-2.7-17.6-.8-25.8 9.9z"/><path class="st2" d="M336.5 37.1s.8-8-10-6-24.2 19.1-24.7 26.4c-.5 7.3-1.1 9.6-1.1 9.6s8.2-18.3 18.2-21c10-2.9 17.6-9 17.6-9z"/><path class="st10" d="M324.1 87.6c-.3 0-.5-.2-.5-.5-.6-4.6-3.4-7.3-3.4-7.3-.2-.2-.2-.5 0-.7.2-.2.5-.2.7 0 .1.1 3.1 3 3.8 7.9-.1.3-.3.5-.6.6zM300.7 79.9c-.1 0-.2 0-.3-.1-.2-.1-.3-.5-.2-.7 1.9-3.2 6.9-3 7.1-3 .3 0 .5.3.5.5 0 .3-.3.5-.5.5 0 0-4.6-.2-6.2 2.5 0 .2-.2.3-.4.3z"/><path class="st4" d="m307.8 175.2-6.5 52.5s-13.9 4.4-29.4 0l-7.6-52.5h43.5z"/><path class="st8" d="M299.2 163c-3.6-.9-11-1.8-24.7.4-2.5.4-4.4 2.3-4.9 4.7 0 0-5.1 2.4-5.3 3.7-.3 1.3-.1 5.7-.1 5.7s3.5 4.7 22.8 4.7c18.9 0 22.4-4.8 22.4-4.8l-.7-4.7c-.2-1-.7-1.9-1.6-2.5l-3-2-1-2c-.8-1.6-2.2-2.7-3.9-3.2z"/><path class="st4" d="M284.9 169c-4.7 0-9.7-.5-12.6-2-.3-.1-.4-.5-.2-.7.1-.3.5-.4.7-.2 4.9 2.5 17.9 2.2 22.2.9 4.1-1.2 6.1-1.9 6.2-1.9.3-.1.6 0 .7.3.1.3 0 .6-.3.7 0 0-2.1.8-6.2 1.9-2.1.6-6.2 1-10.5 1zM284 177.6c-8 0-14.3-1.4-19.1-4.3-.2-.1-.3-.5-.2-.7.1-.2.5-.3.7-.2 6.5 3.9 16 5 28.9 3.5 11.5-1.4 12.9-3.9 12.9-3.9.1-.3.4-.4.7-.3.3.1.4.4.3.7-.1.3-1.5 3.1-13.8 4.6-3.7.4-7.2.6-10.4.6z"/><path class="st8" d="M290.5 221.5c4.8-.2 8.8-.8 11.8-1.4l-.9 7.5s-13.9 4.4-29.4 0l-1.1-7.4c5 1 12.4 1.7 19.6 1.3z"/><path class="st0" d="M297.6 196.7c1.6.6 2.4.7 1.9-.2-.2-.3-1.2-2.3-3.2-3.7-3.5-2.5-8.6-5.1-8.4-6.2.4-1.9 11 2.7 13.4 3.6 2.3.9 7.2 7.9 8 12.1.5 2.5 3.5 8.5 4.6 9.9 3.8 4.6-.3 22.4-4.2 19.6-2.1-1.5-6.9-1.6-12.2-8.8-2.3-3.2-3.9-7.6-6-10.6s-10.8-8.8-10.6-10.9c.2-2 8.2.9 8.2.9s-7.7-5.3-8.3-7.7c-.5-2.4 3.4-1.8 3.4-1.8s-5.2-2.5-2.8-4.1c2.5-1.8 14.6 7.2 16.2 7.9z"/><defs><path id="SVGID_3_" d="M364 136.3s87 109.5 67.6 156.8c-14.4 35.1-91.7-.2-122.5-30.5-10.7-10.6-3.1-30.5-2.5-33 2.1-9.4 8.7-14.7 8.7-14.7s6.3-1.9 19.5 1.2c14.1 3.4 43.8 25.6 43.8 25.6s-29.2-48.8-28.9-69.6c.3-20.7 14.3-35.8 14.3-35.8z"/></defs><use xlink:href="#SVGID_3_" style="overflow:visible;fill:#2c29c4"/><clipPath id="SVGID_4_"><use xlink:href="#SVGID_3_" style="overflow:visible"/></clipPath><g class="st11"><path class="st8" d="m425 189.2-1.7-1.6c-1.1-1-10.7-10.1-22.2-10.1-1.7 0-3.5.2-5.1.6-11.8 3-16.2 7.2-16.9 8l-1.5 1.6-2 2.2 2 2.2 1.5 1.6c1 1.1 10.6 11 22.2 11.5h1c11.4 0 20.2-8.9 21.2-9.9l1.6-1.7 2.2-2.3-2.3-2.1z"/><path class="st9" d="M419.4 191.6s-11.2-10.9-22-8.1c-10.8 2.8-14.2 6.4-14.2 6.4s8.7 9.3 18.4 9.8c9.6.5 17.8-8.1 17.8-8.1z"/></g><g class="st11"><path class="st8" d="m352.3 254.6-2.2.8c-1.4.5-13.7 5.4-18.6 15.7-.7 1.6-1.3 3.2-1.6 4.9-2.3 12-.4 17.7 0 18.7l.8 2 1.1 2.8 2.8-.9 2.1-.7c1.5-.5 14.5-4.8 19.9-15.1.2-.3.3-.6.4-.9 4.9-10.3.7-22 .2-23.4l-.8-2.2-1.1-3-3 1.3z"/><path class="st9" d="M352 260.6s-14.6 5.4-16.7 16.4c-2.1 11-.3 15.6-.3 15.6s12.1-3.9 16.7-12.4.3-19.6.3-19.6z"/></g><path class="st0" d="M149.2 157.2c.6-.5-5.6-7.8-4.2-10.9 1.5-3.1 4.1-2.9 5.4 1.7 1.3 4.6 8.1 12.3 10.3 14.4 2.3 2.1 5.4 9.7 6.1 12.1.8 2.4 6.7 10.1 7.7 12.1s-7.3 6.4-10.5 7.5-3.3 1.8-4.6.2c-1.3-1.7-2.9-5.4-4.9-6.8-2.1-1.3-13.4-6.1-14.4-8.1s-3.3-5.4-4.1-6.9c-.8-1.5-.7-3.9-1.3-6.2-.6-2.3-2.7-3.7-2.4-5.8.5-2.1 16-2.5 16.9-3.3z"/><path class="st0" d="M141.2 155s-9-2-10.1 2.2c-1.1 4.3 2.1 5.2 4.7 4.3 2.6-.8 16 .9 15-3.7-.6-2.5-9.6-2.8-9.6-2.8z"/><path class="st0" d="M149.2 159.5s4.2.3 4.6 1.9c.4 1.6-.2 2.2-.2 2.2s2.4 1.5 2.3 2.7c-.1 1.1-.3 1.3-.3 1.3s1.9 1.1 2.1 2.4c.2 1.3-12.5 9.3-14.5 8.9-2-.4-6.8-16.3-6.2-17.3.7-1.2 12.2-2.1 12.2-2.1z"/><path class="st8" d="M160.8 428.2c-.1 0-.1 0 0 0-.3 0-.5-.3-.5-.6 0-.8 3.6-75.7 2.7-83.7-.9-7.9-5.4-22.7-5.4-22.9-.1-.3.1-.6.3-.7.3-.1.6.1.7.3 0 .1 4.6 15 5.5 23 .9 8-2.6 80.7-2.7 83.8-.1.6-.4.8-.6.8z"/><path class="st4" d="M371.6 229.9c-.2 0-.3-.1-.4-.2-8.8-13-20.6-47.5-20.7-47.8-.1-.3.1-.6.3-.7.3-.1.6.1.7.3.1.3 11.9 34.6 20.6 47.6.2.2.1.6-.1.7-.2.1-.3.1-.4.1z"/><defs><path id="SVGID_5_" d="M290.2 130.5s-11.9 4.6-27.9 35.1c-12.3 23.6-30.6 59.3-30.6 59.3s-46-52.1-59.9-50.5c-13.9 1.6-31.5 37.1-31.5 45.8 0 4 62.5 79.9 104.8 76.6 23.3-1.8 59.8-95.1 67.3-126.1 7.4-31.1-12.6-47.5-22.2-40.2z"/></defs><clipPath id="SVGID_6_"><use xlink:href="#SVGID_5_" style="overflow:visible"/></clipPath><g style="clip-path:url(#SVGID_6_)"><path class="st8" d="m215 180.5-2.2.8c-1.4.5-13.7 5.4-18.6 15.7-.7 1.6-1.3 3.2-1.6 4.9-2.3 12-.4 17.7 0 18.7l.8 2 1.1 2.8 2.8-.9 2.1-.7c1.5-.5 14.5-4.8 19.9-15.1.2-.3.3-.6.4-.9 4.9-10.3.7-22 .2-23.4l-.8-2.2-1.1-3-3 1.3z"/><path class="st9" d="M214.7 186.5s-14.6 5.4-16.7 16.4c-2.1 11-.3 15.6-.3 15.6s12.1-3.9 16.7-12.4.3-19.6.3-19.6z"/></g><path class="st4" d="M424.2 281.5c-1 0-3.8-1.5-13.4-10.8-9.8-9.6-24.4-17.2-24.6-17.3-.3-.1-.4-.5-.2-.7.1-.3.4-.4.7-.2.1.1 14.9 7.8 24.8 17.4 8 7.8 11.5 10.2 12.4 10.5-.1-.5-.6-1.9-3.5-6.1-8.5-12.4-41.8-31.9-42.1-32.1-.3-.1-.3-.5-.2-.7.1-.3.5-.3.7-.2.1 0 8.5 5 17.9 11.4 12.7 8.7 20.9 15.7 24.5 21 4.2 6.1 4 7.1 3.4 7.6 0 .1-.1.2-.4.2zM420.1 259.8c-.2 0-.3-.1-.4-.2-9.7-14.1-36.7-19.2-37-19.2-.3-.1-.5-.3-.4-.6.1-.3.3-.5.6-.4.1 0 7 1.3 15 4.3 7.4 2.8 17.4 7.8 22.6 15.3.2.2.1.6-.1.7-.1.1-.2.1-.3.1zM371.6 237.2c-.1 0-.2 0-.2-.1-.2-.1-18.2-8.8-30-16.6-11.6-7.7-23.6-5.6-23.7-5.6-.3.1-.6-.1-.6-.4-.1-.3.1-.6.4-.6.1 0 12.5-2.2 24.5 5.7 11.7 7.8 29.7 16.4 29.9 16.5.3.1.4.4.2.7-.1.3-.3.4-.5.4zM347.1 681.7c-.3 0-.5-.2-.5-.5s-3.9-34.9-6-50.8c-1.1-8.6-1.5-16.9-1.8-24.9-.3-7-.6-14.2-1.4-21.7-.3-2.7-.5-5.2-.8-7.5-1.2-11.2-1.8-17.9-5.1-31-1.8-7.1-4-14.9-6-21.8-2.5-8.6-4.7-16-5.2-19.9-.2-1.3-.4-2.9-.7-4.7-1.1-7.5-2.5-17.8-4.2-24-.1-.3.1-.6.4-.6.3-.1.6.1.6.4 1.7 6.3 3.2 16.6 4.2 24.1.2 1.8.5 3.3.7 4.7.6 3.8 2.7 11.2 5.2 19.8 2 6.9 4.3 14.8 6.1 21.9 3.3 13.1 4 19.9 5.1 31.2.2 2.3.5 4.7.8 7.4.8 7.5 1.1 14.8 1.4 21.8.3 8 .6 16.2 1.8 24.8 2.1 15.9 5.9 50.5 6 50.8 0 .2-.2.5-.6.5.1 0 .1 0 0 0zM383.9 672.6c-.3 0-.5-.2-.5-.5-.1-1-1.1-3.8-2.5-7.8-2.9-8.1-7.2-20.4-9.8-33.2-2.2-11-1.4-16.4-.6-22 .6-4.3 1.2-8.7.6-15.9-1.4-16.6-21.8-77.7-22-78.4-.1-.3.1-.6.3-.7.3-.1.6.1.7.3.2.6 20.7 61.9 22.1 78.6.6 7.3 0 11.8-.6 16.1-.8 5.6-1.5 10.8.6 21.7 2.5 12.7 6.9 25 9.7 33 1.5 4.1 2.4 6.9 2.6 8 0 .5-.2.8-.6.8.1 0 0 0 0 0zM269 677.9c-.2 0-.4-.1-.5-.3-1.7-4.9-8.1-32.1-6.7-42.3.9-6.8 1.1-19.1 1.1-29 0-4.8.1-8.9.2-11.4.1-2.8.5-5.1.9-7.4.7-4 1.4-8.1.9-15.1-.4-5.2-1.2-12.6-1.9-19.1-.9-8-1.6-14.9-1.5-17 .1-2 0-4.1 0-5.9-.1-1.7-.1-3.3 0-4.3 0-.3.3-.5.6-.5s.5.3.5.6c-.1 1-.1 2.5 0 4.2.1 1.9.1 4 0 6s.7 9.2 1.5 16.8c.7 6.6 1.5 14 1.9 19.2.5 7.1-.2 11.3-.9 15.4-.4 2.3-.8 4.6-.9 7.3-.1 2.5-.2 6.6-.2 11.4-.1 9.9-.2 22.3-1.2 29.1-1.4 10.1 4.9 36.9 6.6 41.8.1.3 0 .6-.3.7 0-.2 0-.2-.1-.2z"/></svg>